<?xml version="1.0" encoding="UTF-8"?>
<svg width="208px" height="28px" viewBox="0 0 208 28" version="1.1" xmlns="http://www.w3.org/2000/svg" xmlns:xlink="http://www.w3.org/1999/xlink">
    <!-- Generator: Sketch 50.2 (55047) - http://www.bohemiancoding.com/sketch -->
    <title>icons/logo-action-white</title>
    <desc>Created with Sketch.</desc>
    <defs>
        <polygon id="path-1" points="50.2333399 14.0196092 50.2333399 0.0904948782 0.190326691 0.0904948782 0.190326691 14.0196092"></polygon>
        <polygon id="path-3" points="50.2333399 14.0196092 50.2333399 0.0904948782 0.190326691 0.0904948782 0.190326691 14.0196092"></polygon>
    </defs>
    <g id="icons/logo-action-white" stroke="none" stroke-width="1" fill="none" fill-rule="evenodd">
        <g id="Group">
            <path d="M17.9481551,13.9752517 C17.9481551,13.9752517 17.8074379,15.0732176 17.8074379,15.0861693 L17.452398,17.859912 L17.4034717,17.8745348 C17.3761941,17.8837263 16.7418849,18.0788368 15.6910529,18.0788368 L15.6828264,18.0788368 C15.2740974,18.0788368 14.4267641,18.0788368 13.8881424,17.5603528 C13.5802967,17.2607936 13.4231264,16.837567 13.4231264,16.2965221 C13.4231264,15.1881113 14.1015994,14.4937356 15.4897193,14.2422228 C16.8769733,13.9940524 17.9628763,13.8728918 17.9628763,13.8728918 L17.9481551,13.9752517 Z M22.02159,8.19797871 C21.1729577,7.27172661 19.549732,6.81967213 17.0618538,6.81967213 C13.9357697,6.81967213 11.5163017,7.77140975 11.49422,7.78352581 C11.386842,7.82697652 11.314535,7.9518973 11.3296892,8.06052407 L11.6306073,10.0091212 C11.6388338,10.0559142 11.6630805,10.0930981 11.6998834,10.1169123 C11.7379852,10.13822 11.7830147,10.1419801 11.8310751,10.1281928 C11.8440643,10.1261039 13.0533652,9.77306686 14.2977373,9.56500482 C16.2712403,9.23787113 17.3987089,9.32143019 17.9581134,9.83782512 C18.2689901,10.1210903 18.3889242,10.5397212 18.3200811,11.0841084 L18.269856,11.456364 C18.269856,11.456364 15.8534189,11.7688749 14.2643982,12.0554824 C12.6732126,12.3450145 11.6847292,12.6763261 10.9174964,13.1618043 C9.2825803,14.2008611 8.87644913,16.2305105 9.19122244,17.6764999 C9.46616199,18.9445085 10.6135475,20.4590164 14.5237506,20.4590164 L14.8285654,20.4590164 C20.813155,20.4590164 21.5955419,19.4646636 21.862255,17.3573043 L22.2194598,14.5589116 L22.6892385,10.8572456 C22.8334193,9.71457552 22.6160655,8.84430798 22.02159,8.19797871 Z" id="Fill-1" fill="#FFFFFF" fill-rule="nonzero"></path>
            <path d="M67.2747891,12.2818838 L67.3586689,11.7065404 C67.4348059,11.1679653 67.6571949,10.4208962 68.3011337,9.91449364 C68.7110693,9.59068016 69.2358557,9.40976241 69.7877418,9.406002 C70.3323153,9.39639204 70.7585967,9.49666978 71.0949763,9.70558173 C71.6520241,10.056136 71.7965555,10.6695014 71.8184933,11.1249295 C71.8301074,11.3940081 71.6584764,12.8931602 71.3220969,15.4531672 L71.3143541,15.5221081 C71.2515519,16.0356137 71.102719,16.7759975 70.5925579,17.2798931 C70.2368213,17.6287761 69.7223586,17.8276603 69.0616438,17.8661001 C68.4757757,17.9041221 68.0112107,17.8226464 67.6434301,17.6174949 C67.1668207,17.3513411 66.8300111,16.7981422 66.7796831,16.2090105 C66.7508629,15.8358938 67.0919741,13.5232386 67.2747891,12.2818838 Z M62.5426779,15.6261462 C62.4661107,16.544941 62.540097,17.2314256 62.7762509,17.8523119 C63.663226,20.1658028 66.7448408,20.4766637 68.5050261,20.4582795 C71.6756825,20.4424021 73.8152626,19.5708215 74.8592436,17.8661001 C75.1805677,17.3400598 75.6554564,15.8772584 76.0899108,11.8966502 L76.1079772,11.75459 C76.2004601,10.9264631 76.1509924,10.2278616 75.9548429,9.61742089 C75.2528334,7.41005728 72.6534199,6.88401701 70.5964292,6.82677514 L70.162835,6.81967213 C67.0115356,6.81967213 64.8766871,7.70880136 63.8099081,9.45781216 C62.956485,10.8541796 62.5456889,15.5789321 62.5426779,15.6261462 Z" id="Fill-2" fill="#FFFFFF" fill-rule="nonzero"></path>
            <path d="M61.3434589,6.85496864 C61.320223,6.82827547 61.2802735,6.81622049 61.2358398,6.82052583 L59.4462656,6.82569226 C57.9383761,6.82569226 57.3403566,7.74488467 57.0097543,8.1784335 L52.470595,14.1775094 L52.5941124,13.8214569 L53.3914716,7.00221164 C53.3984016,6.95313064 53.3853569,6.90921606 53.3551909,6.8764954 C53.3274709,6.84119152 53.2871138,6.82267851 53.2398266,6.82267851 L49.5090332,6.82267851 C49.4079365,6.82267851 49.3096934,6.91438248 49.2954257,7.02072465 L47.739026,20.3027321 C47.7337266,20.3518131 47.7443255,20.3922834 47.7716379,20.4206987 C47.7965044,20.4478225 47.835231,20.4590164 47.8788493,20.4590164 L49.8290367,20.4590164 C51.336111,20.4590164 52.0079147,19.4162604 52.2467964,19.0847484 L56.6803747,12.9457485 L56.5372903,13.3220362 L55.7268863,20.2799138 C55.7224022,20.3277031 55.7354469,20.3742009 55.761944,20.40563 C55.7917023,20.4392118 55.8312442,20.4590164 55.8809772,20.4590164 L59.6085095,20.4590164 C59.712052,20.4590164 59.8090723,20.3660208 59.8237475,20.258387 L61.3752554,6.96819937 C61.3817777,6.92170158 61.3703636,6.88080075 61.3434589,6.85496864" id="Fill-3" fill="#FFFFFF" fill-rule="nonzero"></path>
            <path d="M89.759896,6.85432378 C89.7362226,6.8273346 89.6951056,6.814911 89.6502508,6.821337 L85.7794382,7.31356838 C85.6727001,7.32427837 85.5676232,7.43094992 85.553087,7.54361907 L85.0036143,12.1583417 L84.9766183,12.3472661 L81.2740115,12.3472661 L81.9194238,6.96999173 C81.9244077,6.92243936 81.9115328,6.88216977 81.8870287,6.85432378 C81.8600326,6.8273346 81.8201616,6.814911 81.776968,6.821337 L77.906986,7.31356838 C77.7981714,7.32427837 77.6939253,7.43094992 77.6793889,7.54361907 L76.1539066,20.2808021 C76.1493381,20.3283544 76.1622131,20.3746216 76.1908704,20.4058948 C76.2207737,20.43931 76.26106,20.4590164 76.3075762,20.4590164 L80.1081993,20.4590164 C80.2149373,20.4590164 80.3133689,20.366482 80.3254133,20.259382 L80.9359385,15.1592824 L80.940507,15.120298 L84.644775,15.120298 L84.0263588,20.2808021 C84.0222055,20.3283544 84.0346651,20.3746216 84.0645684,20.4058948 C84.0932257,20.43931 84.1343428,20.4590164 84.1825202,20.4590164 L85.1327799,20.4590164 C86.8854439,20.4590164 88.1717,20.2435312 88.4462286,18.1426586 L89.79063,6.96999173 C89.7968598,6.92243936 89.7860615,6.88216977 89.759896,6.85432378" id="Fill-4" fill="#FFFFFF" fill-rule="nonzero"></path>
            <g id="Group-10" fill="#FFFFFF" fill-rule="nonzero">
                <path d="M48.2328946,6.96445901 C48.2392194,6.91661639 48.2265698,6.87380984 48.1978979,6.84191475 C48.1679611,6.80750164 48.1253749,6.78945574 48.0781506,6.78945574 L33.4626459,6.78945574 C33.2463416,6.78945574 32.9975706,6.88598033 32.7660872,7.11763934 L28.6790755,12.1352394 L28.0967827,12.1352394 L28.7507552,6.86751475 C28.7570799,6.82093115 28.7456954,6.78148197 28.7187101,6.75420328 C28.6917248,6.72776394 28.6512468,6.71559344 28.6082389,6.72188853 L24.6780794,7.20409181 C24.5671866,7.21458361 24.464305,7.31908196 24.4512339,7.42945574 L22.8995779,19.9071476 C22.8936748,19.9537311 22.9071674,19.9990557 22.9371043,20.0296918 C22.9666195,20.0624263 23.0083624,20.0817312 23.0560083,20.0817312 L26.9153315,20.0817312 C27.0203213,20.0817312 27.1227812,19.991082 27.1350089,19.8861639 L27.7607311,14.851777 L28.3662143,14.851777 L31.1642551,19.8895214 C31.2178042,19.991082 31.3666451,20.0817312 31.4825976,20.0817312 L35.6632147,20.0817312 C35.7285699,20.0817312 35.799828,20.0464786 35.7412192,19.9293901 L31.9383967,13.5281312 L35.1150753,9.84299013 L39.7038455,9.84299013 L38.4540876,19.9071476 C38.4477629,19.9537311 38.4616771,19.9990557 38.4899274,20.0296918 C38.5185994,20.0624263 38.5620289,20.0817312 38.6096749,20.0817312 L42.4681547,20.0817312 C42.5735661,20.0817312 42.6756043,19.991082 42.6861455,19.8861639 L43.9127128,9.84299013 L47.6805387,9.84299013 C47.7876368,9.84299013 47.8905182,9.75485902 47.9031678,9.64574426 L48.2328946,6.96445901" id="Fill-5"></path>
                <path d="M9.11007693,6.79239344 L5.4244719,6.78945574 C5.10781597,6.82974426 4.88687363,6.93340328 4.75489854,7.09581639 C4.75489854,7.09581639 0.252987418,12.5838689 0.149262577,12.7110295 C-0.090653825,13.0006032 0.0147575994,13.3052853 0.0809559739,13.4198557 L3.65904137,19.7430557 C3.75517658,19.9281311 4.01617526,20.0817312 4.23922584,20.0817312 L7.43192706,20.0817312 C7.65624258,20.0817312 7.77008692,19.9348459 7.6591941,19.7535475 L4.06719439,13.4337049 L9.26439926,7.07944918 C9.40185575,6.92207213 9.33354916,6.79239344 9.11007693,6.79239344" id="Fill-7"></path>
                <path d="M90.4467969,20.0796328 L94.1332452,20.0796328 C94.4477929,20.0410229 94.6687353,19.9373639 94.8015536,19.7741115 C94.8015536,19.7741115 99.3055732,14.287318 99.4063462,14.1614164 C99.650479,13.8689049 99.5425376,13.566741 99.4759174,13.4509115 L95.8978325,7.12603279 C95.8008539,6.94179673 95.539012,6.78945574 95.317648,6.78945574 L92.1232602,6.78945574 C91.9014745,6.78945574 91.7880519,6.93634099 91.8976797,7.11763934 L95.4879928,13.436223 L90.2950045,19.7917377 C90.1533315,19.9516328 90.2220597,20.0796328 90.4467969,20.0796328" id="Fill-8"></path>
                <path d="M107.95437,13.7874885 C107.95184,20.7137574 113.574907,26.3537311 120.487367,26.3608656 C127.507767,26.3675803 133.182275,20.7498492 133.169204,13.8051147 C133.158241,6.86625573 127.515356,1.2648918 120.535856,1.26237377 C113.605265,1.25985574 107.955634,6.88220328 107.95437,13.7874885 Z M107.020003,12.7932852 C107.177699,11.9967475 107.293651,11.188459 107.499835,10.4049311 C108.934695,4.94751475 113.495637,1.05631475 119.13557,0.451147541 C126.231867,-0.310137705 132.675035,4.54588853 133.859859,11.550636 C135.121845,19.0010754 130.044388,25.9953312 122.554274,27.1263476 C115.347505,28.2153967 108.560275,23.3509771 107.267509,16.1716459 C107.186552,15.7242754 107.103067,15.2764853 107.020003,14.8291148 L107.020003,12.7932852 Z" id="Fill-9"></path>
            </g>
            <path d="M138.667246,19.2703226 L138.667246,18.6013463 C138.667246,15.2122036 138.665943,11.823904 138.667246,8.43518296 C138.668548,7.25277685 139.088082,6.84262314 140.293698,6.82955556 C140.541249,6.82660481 140.790971,6.8384078 141.037219,6.82744788 C141.887578,6.78824511 142.417424,7.16636214 142.750097,7.9284977 C143.893174,10.5432803 145.068389,13.1458383 146.231878,15.7513471 C146.313961,15.9326072 146.411679,16.1075443 146.552825,16.3823852 C146.697448,16.1062797 146.814274,15.9068936 146.908517,15.6990768 C148.104579,13.1057925 149.308023,10.516302 150.483239,7.91416551 C150.824164,7.15919605 151.357919,6.8253402 152.207843,6.82028178 C154.3459,6.80637112 154.581291,7.01460949 154.57912,9.10458079 C154.57912,12.2323716 154.579989,15.360584 154.576949,18.4892179 C154.576949,18.7429821 154.549588,18.9975893 154.533084,19.2808609 L152.078856,19.2808609 L152.078856,9.98095233 C152.025871,9.96409099 151.970715,9.94807258 151.91556,9.93121125 C151.823922,10.108256 151.721428,10.2819285 151.638043,10.4615025 C150.444586,13.0779712 149.244181,15.6914891 148.065927,18.3151239 C147.755402,19.0055985 147.28549,19.3440912 146.49463,19.3213284 C145.784549,19.3015162 145.351553,18.9954816 145.079247,18.3695019 C143.954845,15.7901283 142.809162,13.2200285 141.672165,10.647821 C141.5675,10.4142905 141.456753,10.1841323 141.212676,9.96830635 L141.212676,19.2703226 L138.667246,19.2703226" id="Fill-11" fill="#FFFFFF" fill-rule="nonzero"></path>
            <path d="M175.738202,9.39033191 C174.751292,9.39033191 173.806845,9.38264864 172.8624,9.39154506 C172.219463,9.39801518 171.837693,9.72677818 171.830899,10.3495273 C171.807967,11.8651531 171.81731,13.3815876 171.827501,14.8976176 C171.831748,15.3909644 172.087819,15.8248668 172.603356,15.8580261 C173.635707,15.9259625 174.676974,15.8786497 175.738202,15.8786497 L175.738202,9.39033191 Z M177.765108,9.39397135 C177.765108,11.5048482 177.768081,13.519482 177.762984,15.5345202 C177.762984,15.856813 177.95663,15.9061477 178.236058,15.9041258 C179.060324,15.8968469 179.889261,15.9134266 180.716925,15.8964425 C181.353916,15.8830979 181.74885,15.5324982 181.757768,14.9267332 C181.777727,13.3896752 181.777727,11.8518084 181.757768,10.3155592 C181.7497,9.8258519 181.485561,9.42672633 180.936475,9.40529406 C179.913042,9.36647334 178.886212,9.39397135 177.765108,9.39397135 Z M177.758314,17.8172596 L177.758314,19.3159012 C177.165062,19.3159012 176.641881,19.3385466 176.125917,19.2993216 C176.005314,19.2900208 175.820586,19.080955 175.803175,18.9479131 C175.757736,18.5924609 175.786613,18.2281122 175.786613,17.8172596 C174.731756,17.8172596 173.762256,17.8192815 172.797852,17.8168552 C170.720836,17.8124069 169.35725,16.5127215 169.3564,14.5389303 C169.3564,13.1931453 169.352579,11.8469558 169.358524,10.5007664 C169.366593,8.84845931 170.675397,7.54473002 172.426698,7.47355869 C173.292156,7.43918617 174.161437,7.45980968 175.031142,7.45617024 C175.691914,7.45455271 175.691914,7.45495709 175.868574,6.81967213 L177.709902,6.81967213 C177.665312,7.44767821 178.077659,7.48649893 178.593621,7.46466227 C179.340174,7.4339292 180.087152,7.44403876 180.834556,7.4618316 C182.793515,7.50671806 184.109539,8.78982384 184.112512,10.6414915 C184.114211,11.9876809 184.05221,13.3367011 184.126526,14.6800599 C184.239061,16.6886279 182.272457,17.8176639 180.831583,17.8172596 L177.758314,17.8172596 Z" id="Fill-12" fill="#FFFFFF" fill-rule="nonzero"></path>
            <g id="Group-16" transform="translate(156.852459, 6.819672)">
                <mask id="mask-2" fill="white">
                    <use xlink:href="#path-1"></use>
                </mask>
                <g id="path-1"></g>
                <path d="M9.87292983,14.0196092 L9.87292983,12.5972378 L9.17044179,12.5972378 C7.17936116,12.5972378 5.18869917,12.6036028 3.19719991,12.5917214 C2.80241668,12.5895997 2.40051647,12.5501366 2.01201293,12.4746048 C1.02735741,12.2840784 0.233604497,11.4129183 0.219370531,10.3334097 C0.176668634,7.06475599 0.18880937,3.79482929 0.20681115,0.525751257 C0.20681115,0.385720656 0.465534412,0.149365974 0.624201265,0.126451876 C1.03614898,0.0691666302 1.4627493,0.13663592 1.87720889,0.0984457559 C2.44740483,0.0454038616 2.63286502,0.253752423 2.62742262,0.844002623 C2.60021063,3.50797872 2.61486325,6.17237916 2.61653784,8.83720393 C2.61653784,9.0782263 2.61193272,9.32221902 2.6353769,9.56281704 C2.69566192,10.1878628 3.01927534,10.5460016 3.62505617,10.557883 C4.93960477,10.5833431 6.25247879,10.5600047 7.56786469,10.5701887 C8.05391276,10.5735834 7.96892761,10.2311449 7.96892761,9.94047534 C7.97269544,6.93363643 7.97143948,3.92594885 7.97143948,0.919109946 C7.97143948,0.106932459 7.97269544,0.106932459 8.78989252,0.103962113 C10.4330783,0.0992944262 10.4330783,0.0992944262 10.4330783,1.77244794 L10.4330783,9.82505618 L10.4330783,10.5481232 L12.4505336,10.5481232 C12.2809819,11.7502648 12.1223151,12.8713583 11.9598804,14.0196092 L9.87292983,14.0196092" id="Fill-13" fill="#FFFFFF" fill-rule="nonzero" mask="url(#mask-2)"></path>
                <mask id="mask-4" fill="white">
                    <use xlink:href="#path-3"></use>
                </mask>
                <g id="path-3"></g>
                <path d="M44.7595427,6.93490944 C45.4934293,6.93490944 46.2289904,6.93533377 46.9645515,6.93406077 C47.494976,6.93321209 47.7750503,6.67903533 47.7725384,6.12230761 C47.7675146,5.07462412 47.7670959,4.02778929 47.7725384,2.98010579 C47.7771435,2.42847009 47.5238626,2.17217166 46.9733431,2.176415 C45.5838568,2.18659906 44.1931146,2.19466142 42.8015351,2.17174732 C42.2719479,2.16283628 42.1019775,2.39622062 42.1103506,2.89820911 C42.1258404,4.04561137 42.1400744,5.19471096 42.1028148,6.34211322 C42.0864876,6.85173975 42.2907869,6.95782354 42.7324586,6.9416988 C43.4068973,6.91496568 44.0830107,6.93490944 44.7595427,6.93490944 Z M42.1220726,9.02476007 L42.1220726,12.5594719 L39.6537355,12.5594719 L39.6537355,12.0027442 C39.6537355,8.79392175 39.6503863,5.58594797 39.6541542,2.37754987 C39.656666,0.803266448 40.2599349,0.169734062 41.8181356,0.156579672 C43.7288362,0.140030601 45.6395368,0.13748459 47.550656,0.157004007 C49.1578381,0.173128743 50.228316,1.29125188 50.2325026,2.91730419 C50.2341771,3.98620444 50.2333399,5.05595337 50.2325026,6.12485363 C50.2295721,7.82516459 49.1096939,8.95559345 47.4187825,8.9623828 C45.7270338,8.96832349 44.0352851,8.96832349 42.3443737,8.97214252 C42.3054396,8.97214252 42.2660868,8.98996459 42.1220726,9.02476007 Z" id="Fill-15" fill="#FFFFFF" fill-rule="nonzero" mask="url(#mask-4)"></path>
            </g>
            <path d="M185.26776,6.86001802 C185.510516,6.84415217 185.691386,6.82185422 185.872693,6.82185422 C187.551514,6.81928137 189.230771,6.82614228 190.909157,6.81971018 C192.171324,6.8149933 193.260902,7.2489458 194.184864,8.07568535 C194.927083,8.74033593 195.449645,9.54006068 195.466642,10.5640513 C195.49192,12.1746497 195.502817,13.7848194 195.494535,15.3954177 C195.481896,17.6372198 193.317559,19.1723482 191.751619,19.2653993 C189.877108,19.3760315 187.991703,19.2915565 186.053998,19.2915565 C185.893612,18.7212435 185.712307,18.0823213 185.504416,17.3490616 L187.606428,17.3490616 C188.601431,17.3490616 189.595561,17.3507768 190.590564,17.3490616 C192.156069,17.3469176 192.965844,16.5570555 192.981532,15.0210694 C192.983713,14.7594972 192.982404,14.4974962 192.982404,14.1728895 C192.706088,14.1583101 192.486865,14.1364409 192.269385,14.1360121 C190.485964,14.1330105 188.703415,14.1227191 186.920866,14.1441595 C186.539949,14.1484475 186.363438,14.027524 186.284989,13.6711855 C186.174723,13.1784865 186.023926,12.6947924 185.871385,12.1270521 C186.145522,12.1107575 186.361259,12.0867443 186.575252,12.0867443 C188.482013,12.0824562 190.390082,12.0657328 192.295971,12.096178 C192.855142,12.105183 193.055188,11.9203673 192.985456,11.3937925 C192.940129,11.0503183 192.951025,10.6991255 192.878241,10.3637986 C192.688218,9.47145156 191.945127,8.87926933 191.017243,8.87283723 C189.525393,8.86297468 188.031363,8.87069319 186.539949,8.87069319 L185.841312,8.87069319 C185.648239,8.18889036 185.465191,7.55082581 185.26776,6.86001802" id="Fill-17" fill="#FFFFFF" fill-rule="nonzero"></path>
            <path d="M128.310952,22.0600506 C127.622822,23.4609342 126.700252,24.4738677 125.460305,25.0877667 C122.056199,26.770447 118.721069,26.3790864 115.606421,24.3404299 C112.637939,22.398974 113.483319,18.0697067 115.377318,16.4104739 C116.296603,15.6064367 117.35179,15.1293859 118.513727,14.8710367 C118.637311,14.8428997 118.755558,14.7925941 118.865183,14.6484983 L113.755944,14.6484983 C113.636876,14.1654791 113.91648,14.1283893 114.203884,14.0141359 C114.939641,13.7212549 115.727131,13.4791058 116.357779,13.0144183 C116.786834,12.6976635 117.087788,12.0756644 117.261463,11.5269921 C117.531213,10.688423 117.655618,9.79784303 117.813691,8.92346318 C117.964373,8.1006679 117.555027,7.45010542 116.728121,7.06215531 C116.572101,6.98882848 116.466993,6.79485342 116.336429,6.65715245 C116.508051,6.57316765 116.678442,6.41841393 116.849242,6.41841393 C118.501,6.41159282 120.114163,6.1502594 121.676003,5.60968717 C122.222482,5.4199753 122.718871,5.0797729 123.242771,4.81971843 C123.421372,4.73147044 123.614754,4.67434372 123.948144,4.54644809 C123.778165,5.46559141 123.641032,6.22827574 123.496509,6.98968112 C123.187342,8.61736628 122.861753,10.2407882 122.565315,11.870605 C122.319379,13.2152146 122.869144,13.9761935 124.141938,14.2908168 C125.083805,14.5223079 126.03881,14.7823624 126.907594,15.2065496 C128.122086,15.7999854 128.575364,16.9194985 128.401278,18.1417546 C128.075691,20.4084916 125.331383,20.7798153 124.106628,19.8188927 C123.496509,19.340563 123.263299,18.4823833 123.505541,17.6220719 C123.708777,16.9062827 124.389927,16.3998159 125.257479,16.3392787 C125.561718,16.3175364 125.868009,16.3350155 126.316771,16.3350155 C125.781788,15.6473632 125.165099,15.5105149 124.536093,15.4401723 C121.2761,15.0748171 119.761065,17.2754747 119.229776,19.59337 C118.96947,20.7278043 118.936213,21.8818493 119.301216,23.0107416 C119.688803,24.208271 120.493125,24.8656546 121.705565,24.9948292 C123.777755,25.2152361 125.559254,24.218929 126.248205,22.3469632 C126.292959,22.2216254 126.480182,22.0805139 126.608693,22.0724139 C127.130128,22.0421452 127.656078,22.0600506 128.310952,22.0600506" id="Fill-18" fill="#FFFFFF" fill-rule="nonzero"></path>
            <path d="M117.763629,5.68306011 C117.441482,5.63311026 117.064548,5.60730285 116.708215,5.51364689 C115.901313,5.30302505 115.695752,4.68156576 116.232664,4.0646852 C116.923855,3.27173144 117.879339,2.88337141 118.883473,2.59657607 C119.845531,2.32268443 120.820737,2.15243871 121.826187,2.37721301 C122.805338,2.59449482 123.05911,3.30086885 122.348635,3.97852172 C121.107821,5.16399799 119.502346,5.5265506 117.763629,5.68306011" id="Fill-19" fill="#FFFFFF" fill-rule="nonzero"></path>
        </g>
    </g>
</svg>